HIERARCHY
ROOT hip
{
  OFFSET 0 0 0
  CHANNELS 6 Xposition Yposition Zposition Zrotation Yrotation Xrotation
  JOINT abdomen
  {
    OFFSET 0 20.6881 -0.73152
    CHANNELS 3 Zrotation Xrotation Yrotation
    JOINT chest
    {
      OFFSET 0 11.7043 -0.48768
      CHANNELS 3 Zrotation Xrotation Yrotation
      JOINT neck
      {
        OFFSET 0 22.1894 -2.19456
        CHANNELS 3 Zrotation Xrotation Yrotation
        JOINT head
        {
          OFFSET -0.24384 7.07133 1.2192
          CHANNELS 3 Zrotation Xrotation Yrotation
          JOINT leftEye
          {
            OFFSET 4.14528 8.04674 8.04672
            CHANNELS 3 Zrotation Xrotation Yrotation
            End Site
            {
              OFFSET 1 0 0
            }
          }
          JOINT rightEye
          {
            OFFSET -3.6576 8.04674 8.04672
            CHANNELS 3 Zrotation Xrotation Yrotation
            End Site
            {
              OFFSET 1 0 0
            }
          }
        }
      }
      JOINT rCollar
      {
        OFFSET -2.68224 19.2634 -4.8768
        CHANNELS 3 Zrotation Xrotation Yrotation
        JOINT rShldr
        {
          OFFSET -8.77824 -1.95073 1.46304
          CHANNELS 3 Zrotation Xrotation Yrotation
          JOINT rForeArm
          {
            OFFSET -28.1742 -1.7115 0.48768
            CHANNELS 3 Zrotation Xrotation Yrotation
            JOINT rHand
            {
              OFFSET -22.5879 0.773209 7.07136
              CHANNELS 3 Zrotation Xrotation Yrotation
              JOINT rThumb1
              {
                OFFSET -1.2192 -0.487915 3.41376
                CHANNELS 3 Zrotation Xrotation Yrotation
                JOINT rThumb2
                {
                  OFFSET -3.37035 -0.52449 3.41376
                  CHANNELS 3 Zrotation Xrotation Yrotation
                  End Site
                  {
                    OFFSET -1.78271 -1.18214 1.43049
                  }
                }
              }
              JOINT rIndex1
              {
                OFFSET -7.75947 0.938293 5.60832
                CHANNELS 3 Zrotation Xrotation Yrotation
                JOINT rIndex2
                {
                  OFFSET -2.54057 -0.884171 1.56538
                  CHANNELS 3 Zrotation Xrotation Yrotation
                  End Site
                  {
                    OFFSET -1.62519 -0.234802 1.16502
                  }
                }
              }
              JOINT rMid1
              {
                OFFSET -8.24714 1.18213 3.41376
                CHANNELS 3 Zrotation Xrotation Yrotation
                JOINT rMid2
                {
                  OFFSET -3.10165 -0.590103 1.0647
                  CHANNELS 3 Zrotation Xrotation Yrotation
                  End Site
                  {
                    OFFSET -2.48547 -0.328903 0.83742
                  }
                }
              }
              JOINT rRing1
              {
                OFFSET -8.82822 0.546677 1.51678
                CHANNELS 3 Zrotation Xrotation Yrotation
                JOINT rRing2
                {
                  OFFSET -2.60934 -0.819778 -0.0198488
                  CHANNELS 3 Zrotation Xrotation Yrotation
                  End Site
                  {
                    OFFSET -2.33842 -0.294052 0.168128
                  }
                }
              }
              JOINT rPinky1
              {
                OFFSET -8.27202 -0.0477905 -0.4584
                CHANNELS 3 Zrotation Xrotation Yrotation
                JOINT rPinky2
                {
                  OFFSET -1.82734 -0.647385 -0.700984
                  CHANNELS 3 Zrotation Xrotation Yrotation
                  End Site
                  {
                    OFFSET -1.69225 -0.51767 -0.607171
                  }
                }
              }
            }
          }
        }
      }
      JOINT lCollar
      {
        OFFSET 2.68224 19.2634 -4.8768
        CHANNELS 3 Zrotation Xrotation Yrotation
        JOINT lShldr
        {
          OFFSET 8.77824 -1.95073 1.46304
          CHANNELS 3 Zrotation Xrotation Yrotation
          JOINT lForeArm
          {
            OFFSET 28.1742 -1.7115 0.48768
            CHANNELS 3 Zrotation Xrotation Yrotation
            JOINT lHand
            {
              OFFSET 22.5879 0.773209 7.07136
              CHANNELS 3 Zrotation Xrotation Yrotation
              JOINT lThumb1
              {
                OFFSET 1.2192 -0.487915 3.41376
                CHANNELS 3 Zrotation Xrotation Yrotation
                JOINT lThumb2
                {
                  OFFSET 3.37035 -0.52449 3.41376
                  CHANNELS 3 Zrotation Xrotation Yrotation
                  End Site
                  {
                    OFFSET 1.78271 -1.18214 1.43049
                  }
                }
              }
              JOINT lIndex1
              {
                OFFSET 7.75947 0.938293 5.60832
                CHANNELS 3 Zrotation Xrotation Yrotation
                JOINT lIndex2
                {
                  OFFSET 2.54057 -0.884171 1.56538
                  CHANNELS 3 Zrotation Xrotation Yrotation
                  End Site
                  {
                    OFFSET 1.62519 -0.234802 1.16502
                  }
                }
              }
              JOINT lMid1
              {
                OFFSET 8.24714 1.18213 3.41376
                CHANNELS 3 Zrotation Xrotation Yrotation
                JOINT lMid2
                {
                  OFFSET 3.10165 -0.590103 1.0647
                  CHANNELS 3 Zrotation Xrotation Yrotation
                  End Site
                  {
                    OFFSET 2.48547 -0.328903 0.83742
                  }
                }
              }
              JOINT lRing1
              {
                OFFSET 8.82822 0.546677 1.51678
                CHANNELS 3 Zrotation Xrotation Yrotation
                JOINT lRing2
                {
                  OFFSET 2.60934 -0.819778 -0.0198488
                  CHANNELS 3 Zrotation Xrotation Yrotation
                  End Site
                  {
                    OFFSET 2.33842 -0.294052 0.168128
                  }
                }
              }
              JOINT lPinky1
              {
                OFFSET 8.27202 -0.0477905 -0.4584
                CHANNELS 3 Zrotation Xrotation Yrotation
                JOINT lPinky2
                {
                  OFFSET 1.82734 -0.647385 -0.700984
                  CHANNELS 3 Zrotation Xrotation Yrotation
                  End Site
                  {
                    OFFSET 1.69225 -0.51767 -0.607171
                  }
                }
              }
            }
          }
        }
      }
    }
  }
  JOINT rButtock
  {
    OFFSET -8.77824 4.35084 1.2192
    CHANNELS 3 Zrotation Xrotation Yrotation
    JOINT rThigh
    {
      OFFSET 0 -1.70687 -2.19456
      CHANNELS 3 Zrotation Xrotation Yrotation
      JOINT rShin
      {
        OFFSET 0 -36.8199 0.73152
        CHANNELS 3 Zrotation Xrotation Yrotation
        JOINT rFoot
        {
          OFFSET 0.73152 -45.1104 -5.12064
          CHANNELS 3 Zrotation Xrotation Yrotation
          End Site
          {
            OFFSET -1.1221 -3.69964 12.103
          }
        }
      }
    }
  }
  JOINT lButtock
  {
    OFFSET 8.77824 4.35084 1.2192
    CHANNELS 3 Zrotation Xrotation Yrotation
    JOINT lThigh
    {
      OFFSET 0 -1.70687 -2.19456
      CHANNELS 3 Zrotation Xrotation Yrotation
      JOINT lShin
      {
        OFFSET 0 -36.8199 0.73152
        CHANNELS 3 Zrotation Xrotation Yrotation
        JOINT lFoot
        {
          OFFSET -0.73152 -45.1104 -5.12064
          CHANNELS 3 Zrotation Xrotation Yrotation
          End Site
          {
            OFFSET 1.1221 -3.69964 12.103
          }
        }
      }
    }
  }
}
MOTION
Frames:	6
Frame Time:	0.00833333
0.03168974 61.760414 -0.28671312 8.34496 39.730927 9.940878 -13.665742 18.572306 -1.6571022 6.631715 -11.73541 -0.09884112 -9.220046 20.122955 -14.957575 12.384379 -32.54263 -25.9049 -0.022351306 0.05177584 -0.016167033 -0.008275864 0.017469298 -0.045362305 -0.0877336 0.014276735 0.013215425 48.46944 -2.0146327 32.570675 -28.771156 -32.99698 73.60128 -0.89843696 29.097263 5.0312114 -0.018544862 -0.0072196266 -0.025570538 0.029268239 -0.02489718 -0.012781259 -0.045625925 0.07039051 0.0085381465 7.7144456 5.4547095 0.3917402 -0.017502919 0.041713845 -0.032168567 2.8615673 1.0158024 0.04200772 -0.012732419 -0.02725412 -0.021898983 10.21649 0.7472236 0.065231204 -0.004590994 -0.035589367 0.04470977 2.3325388 -0.7950242 -0.20788394 0.057225067 0.027876778 -0.034236163 -67.18746 77.12291 -10.9190445 27.869204 -45.076023 -92.982506 37.491947 -79.93001 42.763268 0.058676604 0.029772572 0.10726095 0.017948164 -0.039940577 0.0072115944 0.014774979 0.031831607 -0.009513943 -7.6953053 5.4504247 -0.3975412 0.025164926 -0.07397632 -0.011023157 -2.8610244 0.9976684 -0.093753204 -0.04169459 -0.07043606 0.0453907 -10.264768 0.70962274 0.005469133 -0.040045343 0.073934846 0.013245079 -2.2607112 -0.7224971 0.18957679 -0.08005308 0.011414223 0.0027038418 -56.788296 -58.938828 -48.33594 -11.167336 84.27576 9.63802 -2.7998757 -6.620666 -4.80891 0.09177011 0.08282338 0.059814475 29.8971 -27.122356 32.442093 2.993446 73.641136 -5.625598 6.752968 -15.418483 14.172138
0.14471133 63.87148 -0.63864607 10.349347 39.85669 10.773339 -13.395538 18.341633 -1.4985042 6.646706 -12.235615 -0.16288447 -9.099292 19.644907 -15.317984 12.476571 -32.455635 -26.636688 0.021709075 0.025518233 -0.004689121 -0.03078992 -0.003737761 -0.0721545 -0.022110967 -0.02597691 0.03812209 49.297565 -0.87769395 33.758255 -29.029316 -32.461018 73.03321 -1.3692533 33.330677 5.6748443 -0.015735287 0.0162722 -0.080640994 0.047992792 -0.008074816 -0.03566957 -0.06616582 0.048939556 -0.014747141 7.7282495 5.5418544 0.42768857 -0.017073924 -0.03298544 0.042852663 2.8398767 0.9940595 0.051713802 0.036439314 -0.036897495 0.01730051 10.271836 0.68395454 0.0677715 -0.036999397 0.007415274 0.021664247 2.2609959 -0.74049133 -0.20450649 0.043166645 0.04573943 -0.0075702663 -66.40451 76.43071 -7.418323 26.411604 -45.13018 -91.997765 50.507584 -83.107735 63.666225 0.03741351 -0.027838634 0.041626368 -0.04540346 0.017893402 0.035996936 0.00037555283 -0.008133704 -0.029271808 -7.6851225 5.4861774 -0.3694296 0.012640869 -0.08535224 -0.042130657 -2.8340962 0.99243885 -0.09748845 -0.011406631 -0.0036672435 0.026666516 -10.276318 0.7654552 0.021782523 0.0050360183 0.032495305 -0.08454175 -2.2607248 -0.75797766 0.16957223 -0.03725622 0.013229018 0.027823081 -62.74284 -59.43559 -49.744816 -11.3280735 86.39204 15.479623 -1.7412654 -7.7679667 -4.324391 0.06101659 0.0060896133 0.048729636 28.344606 -27.318426 33.389084 3.487802 76.42721 -4.3874993 6.510793 -15.944444 15.215943
0.1279287 64.09061 -0.79768956 9.584253 39.87249 9.963264 -12.384018 18.142694 -2.3067963 6.831126 -12.342193 -0.49817038 -9.091167 18.959324 -15.270414 12.101952 -31.542 -26.597082 0.053265065 0.019178988 -0.06983703 -0.056585245 -0.0051077586 -0.012182026 -0.013596879 -0.043025315 -0.0018552472 49.86321 0.8059881 33.487167 -28.340937 -31.688684 70.930275 -1.7113008 36.61218 5.824299 0.0075543523 0.05197613 -0.03470821 0.03129198 -0.05604191 -0.031915367 -0.04158059 0.035984732 0.013343332 7.7864356 5.555844 0.40388706 -0.006422005 -0.069408566 0.065073945 2.872188 0.9867362 0.09038201 0.091193594 -0.031129297 0.023348687 10.288065 0.650748 0.03861552 -0.06508494 0.0103752 -0.026273964 2.2539148 -0.74701405 -0.19500956 0.020226486 0.012669284 -0.0050740615 -60.645836 76.273796 -13.74029 26.755676 -44.807007 -92.05784 45.783752 -82.83898 67.18184 0.020186927 -0.03047751 -0.029849174 -0.048084624 0.07440911 0.07766679 -0.0042519043 -0.0057668025 0.012478133 -7.7105627 5.4828205 -0.33368847 -0.004383286 -0.03734169 0.0012736436 -2.8636143 1.0289484 -0.081608646 -0.0154091595 0.01513577 0.00808558 -10.272336 0.83902985 -0.021756493 0.031880807 0.02143142 -0.08621677 -2.234708 -0.71912086 0.1862696 0.0014868602 0.019664677 0.07280663 -59.747677 -58.773205 -51.015476 -10.013037 85.59792 15.060147 -2.029754 -8.879293 -4.0547423 0.022710668 0.014859399 0.005554835 27.377628 -30.012379 32.633755 3.9306893 78.01442 -3.9392726 7.038795 -16.395777 15.720453
-0.047157705 63.2337 -0.8728659 7.585278 40.40985 8.434471 -11.368267 18.010464 -2.9681902 6.7420263 -12.394445 -0.6525812 -9.329814 18.432287 -14.904944 11.986381 -30.987476 -26.346582 0.060034975 0.030118344 -0.071299866 -0.06415615 -0.004970872 0.041270304 -0.0025369641 -0.027211796 -0.014492568 51.62626 0.6630409 33.567444 -28.012505 -31.269833 69.64565 -1.5166409 36.944897 6.0264807 0.024852645 0.07139155 -0.022336448 0.010753652 -0.07375123 -0.042757288 0.0072272005 0.036301486 0.025524091 7.8094516 5.5169506 0.37172133 -0.0031585202 -0.08942457 0.046199385 2.8624265 0.99660367 0.13324285 0.11159101 -0.00052365573 0.01689362 10.256138 0.6432196 0.0065993257 -0.04690772 0.011987442 -0.051903483 2.2376761 -0.7736337 -0.195135 0.017158026 -0.013985995 -0.020907322 -54.45068 76.93313 -20.50549 27.075865 -44.491627 -92.547226 47.09901 -80.16045 59.03365 0.016001368 -0.008339106 -0.04869624 -0.03171544 0.09539979 0.08956587 -0.016043557 -0.012756083 0.031400777 -7.7317157 5.4839873 -0.32784158 -0.021496253 -0.012413118 0.028952971 -2.8988786 1.0416402 -0.07217519 0.012108046 0.03021672 -0.009134301 -10.258219 0.83381325 -0.044366524 0.048382666 0.012256687 -0.06777685 -2.2501383 -0.67791224 0.21840502 0.030453933 -0.0048334342 0.08526249 -57.09693 -57.049126 -50.340244 -8.140968 84.96175 12.706273 -1.9565232 -9.9218 -4.5324445 0.031102227 0.024251724 -0.01886179 27.94337 -31.257303 32.247547 3.088255 78.32636 -4.9893847 7.50763 -16.446781 16.366573
-0.10010172 62.51908 -0.9756569 6.195613 40.8222 7.335424 -10.184003 17.886164 -3.4053273 6.5961766 -12.48343 -0.65459174 -9.313161 18.039745 -14.433512 11.880236 -30.853542 -25.71636 0.059375014 0.035118956 -0.050390176 -0.056040917 -0.0022977572 0.08273161 0.008002533 -0.007044884 -0.001112295 52.65841 0.19530879 33.93288 -28.06348 -30.699587 68.74915 -1.8663541 35.53384 5.5860085 0.023631297 0.07773193 -0.022137783 -0.010395515 -0.062454317 -0.04363601 0.044529397 0.041245148 0.027135072 7.814186 5.490985 0.36494592 0.0023061198 -0.10467839 0.026118152 2.8580687 1.0002652 0.16818772 0.12125442 0.025513694 -0.006554216 10.238779 0.65864396 -0.015000354 -0.025915498 0.015466013 -0.06717393 2.2230766 -0.78973156 -0.19901465 0.018070174 -0.020291843 -0.013997172 -48.81895 77.8588 -31.96164 26.7478 -44.485043 -92.51766 44.337456 -78.7832 51.561737 0.007993656 0.016427623 -0.06107958 -0.018113416 0.104221016 0.070141405 -0.02413457 -0.025382722 0.04683378 -7.7256045 5.4852395 -0.34574935 -0.018673128 -0.0051849177 0.046713606 -2.9330342 1.0585312 -0.06862769 0.02905393 0.05164771 -0.016771639 -10.243809 0.7928742 -0.050397903 0.060293064 -0.0011146867 -0.058101997 -2.2807314 -0.66285646 0.24665764 0.048617408 -0.023490882 0.07767545 -55.84542 -56.074318 -49.727894 -6.6977124 83.79196 9.985673 -1.8981712 -10.14613 -3.9662225 0.044076838 0.040600087 -0.036697205 28.801395 -32.108887 32.26477 2.4048054 78.72832 -5.842835 7.8292227 -16.427774 16.89065
-0.15721191 63.137695 -0.84983075 5.2849116 40.979664 7.136095 -9.784901 17.428076 -3.416835 6.5510416 -12.456967 -0.5889136 -9.235208 17.902943 -14.333828 12.447828 -30.64358 -25.62923 0.060346648 0.049014915 -0.021598967 -0.053372525 -0.01683118 0.11508645 0.034962535 -0.011622905 -0.005999077 53.10936 -0.8122315 33.958218 -28.041103 -30.176907 68.19136 -1.7152193 34.82402 5.671263 0.017305285 0.060346566 -0.03937849 -0.037248526 -0.067567356 -0.026792634 0.065311424 0.033848252 0.006504961 7.7969236 5.473755 0.36109772 0.0047209 -0.11186749 0.010227637 2.8481498 0.9806559 0.17858163 0.119016856 0.060473196 0.00434639 10.22563 0.6619599 -0.021779345 -0.02025407 0.039442953 -0.07715585 2.2290354 -0.82222956 -0.18700649 0.014352671 -0.018306846 -0.0043066447 -39.751415 77.914734 -40.466347 26.671642 -44.47273 -92.69697 42.12155 -78.93874 50.069454 -0.016664432 0.023348225 -0.07070596 -0.024515027 0.10398295 0.05581717 -0.010504293 -0.020694995 0.045785956 -7.711717 5.5031223 -0.36900464 -0.023987286 -0.014156761 0.051510975 -2.941083 1.0648862 -0.068285264 0.03457866 0.05908701 -0.008559468 -10.235655 0.7762182 -0.045511585 0.07197371 -0.010566856 -0.062352464 -2.2881114 -0.65354824 0.25813395 0.059747666 -0.030870836 0.056283567 -55.684032 -55.66029 -50.171356 -5.75135 82.44791 8.436987 -1.7583209 -10.092569 -3.4362173 0.053586934 0.03766982 -0.025949832 29.834532 -32.123276 32.858376 2.1213799 79.10107 -6.199913 7.9550543 -16.172747 17.04366
